<svg id="图层_1" data-name="图层 1" xmlns="http://www.w3.org/2000/svg" viewBox="0 0 560.19 180.94"><defs><style>.cls-1{fill:#2319dc;}.cls-2{fill:#fff;}.cls-3{fill:#e10601;}</style></defs><title>百度翻译</title><g id="_编组_" data-name="&lt;编组&gt;"><g id="_编组_2" data-name="&lt;编组&gt;"><path id="_复合路径_" data-name="&lt;复合路径&gt;" class="cls-1" d="M237.08,426.83c19.68-4.23,17-27.74,16.41-32.88-1-7.93-10.28-21.79-22.93-20.67-15.93,1.41-18.25,24.42-18.25,24.42C210.14,408.33,217.45,431.05,237.08,426.83Zm36.53-39.45c10.85,0,19.64-12.51,19.64-27.95s-8.79-28-19.64-28S254,344,254,359.43,262.75,387.38,273.61,387.38Zm46.8,1.87c14.52,1.88,23.85-13.62,25.72-25.36s-7.49-25.38-17.77-27.71S305.18,350.32,304,361.07C302.62,374.23,305.9,387.36,320.41,389.25ZM378,409c0-5.62-4.67-22.54-22-22.54s-19.66,16-19.66,27.25c0,10.78.92,25.83,22.47,25.35S378,414.6,378,409Zm-22,49.32s-22.47-17.39-35.57-36.16c-17.79-27.71-43.06-16.44-51.49-2.35s-21.52,23-23.4,25.35S218.39,461.09,224,486s25.28,24.41,25.28,24.41a110.61,110.61,0,0,0,31.36-2.35A66,66,0,0,1,312,509s39.33,13.16,50.09-12.19S356,458.29,356,458.29Z" transform="translate(-17.54 -331.47)"/></g></g><g id="_编组_3" data-name="&lt;编组&gt;"><g id="_编组_4" data-name="&lt;编组&gt;"><path id="_复合路径_2" data-name="&lt;复合路径&gt;" class="cls-2" d="M276.75,451.44H263.31c-10.26,0-18.72,9.84-18.72,22.08S253,495.6,263.13,495.6h25.62V434.16h-12Zm0,34.56H266.19c-5.22,0-9.6-5.46-9.6-12.48s4.46-12.48,9.6-12.48h10.56Zm47-34.56V486h-12c-2.4,0-4.8-1.84-4.8-3.84V451.44H295v33.12c0,6.16,6.11,11,12.48,11h28.8V451.44Z" transform="translate(-17.54 -331.47)"/></g></g><g id="_编组_5" data-name="&lt;编组&gt;"><g id="_编组_6" data-name="&lt;编组&gt;"><path id="_复合路径_3" data-name="&lt;复合路径&gt;" class="cls-3" d="M152.91,439.59H110.67V454h37c4.74,0,8.64,3.42,8.64,7.68v4.8H123.15c-10.08,0-17.76,9.11-17.76,20.64s8.13,20.65,16.8,20.65h53.27V459.14C175.46,448.58,165.34,439.59,152.91,439.59Zm3.36,53.76H130.08c-2.88,0-5.49-2.85-5.49-6.24a6.07,6.07,0,0,1,6.08-6.24h25.6Zm-69.12-33.6s11-7.13,11-19.68c0-14.21-14.55-25.91-32.58-25.91H17.54v94.56H71.85c16.46,0,29.22-11.82,29.22-26.41C101.07,466.65,87.15,459.75,87.15,459.75Zm-50.4-27.36s28,0,33.09,0S79,436.79,79,442s-3.74,10.08-9,10.08H36.75Zm35.73,58v0H36.75V470.32H72.29a9.81,9.81,0,0,1,9.58,10.07C81.87,485,78.37,490.43,72.48,490.43Zm498.38-37.35q-5.26,0-7.28-1.59l-5.26-4,19-18.26v-11.9H517.05v11.9h42.48l-12.14,11.11-9.3-7.54h-19l18.61,15.48L534,451.1a7.22,7.22,0,0,1-5.26,2H517.45v10.71H534q4.44,0,9.71-3.57l4.85-4,6.48,4.76a12.26,12.26,0,0,0,8.9,2.78h13.76V453.08ZM511,417.37H487.51v12.7H511Zm-53.82,11.9h7.29v4h-6.07L456,451.49c-.55,1.59-1.08,2.25-1.62,2V417.37h-21v12.3h8.5v3.57h-6.88l-2,18.25a2.94,2.94,0,0,0-.41,1.19c-.27,2.12-.81,3.05-1.62,2.78H428q-.81.41-1.62-1.59v-.79l-.81-2.78H415.49v-2h17v-11.9h-2v-3.58H419.13v3.58h-3.64v-5.56h7.28q6.87,0,8.09-5.16l1.22-9.52H420.34l-.4,2.78a2.08,2.08,0,0,1-2.43.79h-32v11.51h16.18v5.16h-4.05v-3.18H386.36v3.18h-1.22v11.5h16.59v2H391.61l-1.21,3.57q-1.62,4-2.83,3.17h-2.83v7.94h6.87q3.24,0,5.26-4l2-4.76h2.83v10.71h-17V507h38q8.09-.8,8.9-11.9V492h4.45q3.64-.39,4.45-3.57l2-16.27v20.64a3.28,3.28,0,0,1-3.65,3.17h-6.47v10.32H445q9.32-.4,9.71-10.72V492h2.84c2.42,0,3.9-1.84,4.45-5.55l2.43-15.08V494c0,1.58-.81,2.25-2.43,2H456v10.71h10.11q10.94-.39,10.93-11.9v-77H457.16Zm-55.43,66.66h-4.45v-4h4.45Zm0-14.28h-4.45v-4h4.45Zm17.4,12.3c0,1.58-.55,2.25-1.62,2h-2v-4h3.64Zm0-12.3h-3.64v-4h3.64ZM442.19,465H434.5l-1.61,13.89c0,1.06-.41,1.46-1.22,1.19V466.57H415.49V455.86h3.23l1.62,5.15c.81,2.13,2.56,3.18,5.26,3.18h10.52q2.83.4,4.05-4l2-15.87Zm22.26,0h-6.07l-1.62,12.3c-.27,1.86-.95,2.78-2,2.78V463.79h3.65q3.63,0,4-3.57l2-12.69Zm-278.9,42.78h19.2V439.6h-19.2Zm321.78-13v-46H486.7V461H494v40.08q-.41,6.74,6.48,6.74h13.75V497.12h-4C508,497.39,507.06,496.59,507.33,494.74Zm46.94-29.36H539.7v5.55H517.05v10.72H539.7v8.73H516.64v10.31H539.7v7.14h14.57v-7.14h23.06V490.38H554.27v-8.73h23.06V470.93H554.27ZM185.55,431.91h19.2V414.63h-19.2Z" transform="translate(-17.54 -331.47)"/></g></g></svg>